<?xml version="1.0" encoding="UTF-8" standalone="no"?>
<!DOCTYPE svg PUBLIC "-//W3C//DTD SVG 1.1//EN"
 "http://www.w3.org/Graphics/SVG/1.1/DTD/svg11.dtd">
<!-- Generated by graphviz version 2.44.1 (20200629.0846)
 -->
<!-- Title: append.c Pages: 1 -->
<svg width="775pt" height="140pt"
 viewBox="0.00 0.00 774.50 140.00" xmlns="http://www.w3.org/2000/svg" xmlns:xlink="http://www.w3.org/1999/xlink">
<g id="graph0" class="graph" transform="scale(1 1) rotate(0) translate(4 136)">
<title>append.c</title>
<polygon fill="white" stroke="transparent" points="-4,4 -4,-136 770.5,-136 770.5,4 -4,4"/>
<!-- Node1 -->
<g id="node1" class="node">
<title>Node1</title>
<g id="a_node1"><a xlink:title=" ">
<polygon fill="#bfbfbf" stroke="black" points="306,-112.5 306,-131.5 362,-131.5 362,-112.5 306,-112.5"/>
<text text-anchor="middle" x="334" y="-119.5" font-family="Helvetica,sans-Serif" font-size="10.00">append.c</text>
</a>
</g>
</g>
<!-- Node2 -->
<g id="node2" class="node">
<title>Node2</title>
<g id="a_node2"><a xlink:title=" ">
<polygon fill="white" stroke="#bfbfbf" points="273,-56.5 273,-75.5 323,-75.5 323,-56.5 273,-56.5"/>
<text text-anchor="middle" x="298" y="-63.5" font-family="Helvetica,sans-Serif" font-size="10.00">String.h</text>
</a>
</g>
</g>
<!-- Node1&#45;&gt;Node2 -->
<g id="edge1" class="edge">
<title>Node1&#45;&gt;Node2</title>
<path fill="none" stroke="midnightblue" d="M328.06,-112.08C323.02,-104.53 315.66,-93.49 309.49,-84.23"/>
<polygon fill="midnightblue" stroke="midnightblue" points="312.29,-82.13 303.83,-75.75 306.47,-86.01 312.29,-82.13"/>
</g>
<!-- Node3 -->
<g id="node3" class="node">
<title>Node3</title>
<g id="a_node3"><a xlink:href="archiver_8h.html" target="_top" xlink:title=" ">
<polygon fill="white" stroke="black" points="341.5,-56.5 341.5,-75.5 400.5,-75.5 400.5,-56.5 341.5,-56.5"/>
<text text-anchor="middle" x="371" y="-63.5" font-family="Helvetica,sans-Serif" font-size="10.00">archiver.h</text>
</a>
</g>
</g>
<!-- Node1&#45;&gt;Node3 -->
<g id="edge2" class="edge">
<title>Node1&#45;&gt;Node3</title>
<path fill="none" stroke="midnightblue" d="M340.11,-112.08C345.28,-104.53 352.85,-93.49 359.19,-84.23"/>
<polygon fill="midnightblue" stroke="midnightblue" points="362.24,-85.98 365,-75.75 356.46,-82.02 362.24,-85.98"/>
</g>
<!-- Node4 -->
<g id="node4" class="node">
<title>Node4</title>
<g id="a_node4"><a xlink:title=" ">
<polygon fill="white" stroke="#bfbfbf" points="0,-0.5 0,-19.5 46,-19.5 46,-0.5 0,-0.5"/>
<text text-anchor="middle" x="23" y="-7.5" font-family="Helvetica,sans-Serif" font-size="10.00">stdio.h</text>
</a>
</g>
</g>
<!-- Node3&#45;&gt;Node4 -->
<g id="edge3" class="edge">
<title>Node3&#45;&gt;Node4</title>
<path fill="none" stroke="midnightblue" d="M341.25,-57.82C338.14,-57.16 335.01,-56.54 332,-56 213.04,-34.6 178.44,-44.32 56.43,-20.03"/>
<polygon fill="midnightblue" stroke="midnightblue" points="56.82,-16.54 46.32,-17.98 55.43,-23.4 56.82,-16.54"/>
</g>
<!-- Node5 -->
<g id="node5" class="node">
<title>Node5</title>
<g id="a_node5"><a xlink:title=" ">
<polygon fill="white" stroke="#bfbfbf" points="64,-0.5 64,-19.5 112,-19.5 112,-0.5 64,-0.5"/>
<text text-anchor="middle" x="88" y="-7.5" font-family="Helvetica,sans-Serif" font-size="10.00">stdlib.h</text>
</a>
</g>
</g>
<!-- Node3&#45;&gt;Node5 -->
<g id="edge4" class="edge">
<title>Node3&#45;&gt;Node5</title>
<path fill="none" stroke="midnightblue" d="M341.23,-57.94C338.12,-57.26 335,-56.6 332,-56 241.82,-37.92 215.61,-40.35 121.97,-20.03"/>
<polygon fill="midnightblue" stroke="midnightblue" points="122.6,-16.59 112.08,-17.86 121.1,-23.42 122.6,-16.59"/>
</g>
<!-- Node6 -->
<g id="node6" class="node">
<title>Node6</title>
<g id="a_node6"><a xlink:title=" ">
<polygon fill="white" stroke="#bfbfbf" points="130.5,-0.5 130.5,-19.5 181.5,-19.5 181.5,-0.5 130.5,-0.5"/>
<text text-anchor="middle" x="156" y="-7.5" font-family="Helvetica,sans-Serif" font-size="10.00">unistd.h</text>
</a>
</g>
</g>
<!-- Node3&#45;&gt;Node6 -->
<g id="edge5" class="edge">
<title>Node3&#45;&gt;Node6</title>
<path fill="none" stroke="midnightblue" d="M341.5,-57.81C307.53,-49.5 249.82,-35.29 191.37,-20.33"/>
<polygon fill="midnightblue" stroke="midnightblue" points="192.16,-16.92 181.61,-17.82 190.43,-23.7 192.16,-16.92"/>
</g>
<!-- Node7 -->
<g id="node7" class="node">
<title>Node7</title>
<g id="a_node7"><a xlink:title=" ">
<polygon fill="white" stroke="#bfbfbf" points="199.5,-0.5 199.5,-19.5 248.5,-19.5 248.5,-0.5 199.5,-0.5"/>
<text text-anchor="middle" x="224" y="-7.5" font-family="Helvetica,sans-Serif" font-size="10.00">stdint.h</text>
</a>
</g>
</g>
<!-- Node3&#45;&gt;Node7 -->
<g id="edge6" class="edge">
<title>Node3&#45;&gt;Node7</title>
<path fill="none" stroke="midnightblue" d="M347.71,-56.44C323.19,-47.44 284.4,-33.19 256.8,-23.05"/>
<polygon fill="midnightblue" stroke="midnightblue" points="257.78,-19.68 247.18,-19.52 255.36,-26.25 257.78,-19.68"/>
</g>
<!-- Node8 -->
<g id="node8" class="node">
<title>Node8</title>
<g id="a_node8"><a xlink:title=" ">
<polygon fill="white" stroke="#bfbfbf" points="267,-0.5 267,-19.5 319,-19.5 319,-0.5 267,-0.5"/>
<text text-anchor="middle" x="293" y="-7.5" font-family="Helvetica,sans-Serif" font-size="10.00">getopt.h</text>
</a>
</g>
</g>
<!-- Node3&#45;&gt;Node8 -->
<g id="edge7" class="edge">
<title>Node3&#45;&gt;Node8</title>
<path fill="none" stroke="midnightblue" d="M358.47,-56.32C346.41,-47.98 327.97,-35.21 313.73,-25.35"/>
<polygon fill="midnightblue" stroke="midnightblue" points="315.72,-22.47 305.5,-19.65 311.73,-28.22 315.72,-22.47"/>
</g>
<!-- Node9 -->
<g id="node9" class="node">
<title>Node9</title>
<g id="a_node9"><a xlink:title=" ">
<polygon fill="white" stroke="#bfbfbf" points="337,-0.5 337,-19.5 405,-19.5 405,-0.5 337,-0.5"/>
<text text-anchor="middle" x="371" y="-7.5" font-family="Helvetica,sans-Serif" font-size="10.00">sys/types.h</text>
</a>
</g>
</g>
<!-- Node3&#45;&gt;Node9 -->
<g id="edge8" class="edge">
<title>Node3&#45;&gt;Node9</title>
<path fill="none" stroke="midnightblue" d="M371,-56.08C371,-49.01 371,-38.86 371,-29.99"/>
<polygon fill="midnightblue" stroke="midnightblue" points="374.5,-29.75 371,-19.75 367.5,-29.75 374.5,-29.75"/>
</g>
<!-- Node10 -->
<g id="node10" class="node">
<title>Node10</title>
<g id="a_node10"><a xlink:title=" ">
<polygon fill="white" stroke="#bfbfbf" points="423,-0.5 423,-19.5 483,-19.5 483,-0.5 423,-0.5"/>
<text text-anchor="middle" x="453" y="-7.5" font-family="Helvetica,sans-Serif" font-size="10.00">sys/stat.h</text>
</a>
</g>
</g>
<!-- Node3&#45;&gt;Node10 -->
<g id="edge9" class="edge">
<title>Node3&#45;&gt;Node10</title>
<path fill="none" stroke="midnightblue" d="M384.17,-56.32C396.85,-47.98 416.23,-35.21 431.21,-25.35"/>
<polygon fill="midnightblue" stroke="midnightblue" points="433.43,-28.08 439.86,-19.65 429.58,-22.23 433.43,-28.08"/>
</g>
<!-- Node11 -->
<g id="node11" class="node">
<title>Node11</title>
<g id="a_node11"><a xlink:title=" ">
<polygon fill="white" stroke="#bfbfbf" points="501,-0.5 501,-19.5 545,-19.5 545,-0.5 501,-0.5"/>
<text text-anchor="middle" x="523" y="-7.5" font-family="Helvetica,sans-Serif" font-size="10.00">fcntl.h</text>
</a>
</g>
</g>
<!-- Node3&#45;&gt;Node11 -->
<g id="edge10" class="edge">
<title>Node3&#45;&gt;Node11</title>
<path fill="none" stroke="midnightblue" d="M395.08,-56.44C420.99,-47.24 462.32,-32.56 490.96,-22.38"/>
<polygon fill="midnightblue" stroke="midnightblue" points="492.26,-25.63 500.51,-18.99 489.92,-19.04 492.26,-25.63"/>
</g>
<!-- Node12 -->
<g id="node12" class="node">
<title>Node12</title>
<g id="a_node12"><a xlink:title=" ">
<polygon fill="white" stroke="#bfbfbf" points="563.5,-0.5 563.5,-19.5 610.5,-19.5 610.5,-0.5 563.5,-0.5"/>
<text text-anchor="middle" x="587" y="-7.5" font-family="Helvetica,sans-Serif" font-size="10.00">errno.h</text>
</a>
</g>
</g>
<!-- Node3&#45;&gt;Node12 -->
<g id="edge11" class="edge">
<title>Node3&#45;&gt;Node12</title>
<path fill="none" stroke="midnightblue" d="M400.53,-57.98C434.85,-49.77 493.41,-35.6 553.23,-20.15"/>
<polygon fill="midnightblue" stroke="midnightblue" points="554.42,-23.46 563.23,-17.56 552.67,-16.68 554.42,-23.46"/>
</g>
<!-- Node13 -->
<g id="node13" class="node">
<title>Node13</title>
<g id="a_node13"><a xlink:title=" ">
<polygon fill="white" stroke="#bfbfbf" points="628.5,-0.5 628.5,-19.5 677.5,-19.5 677.5,-0.5 628.5,-0.5"/>
<text text-anchor="middle" x="653" y="-7.5" font-family="Helvetica,sans-Serif" font-size="10.00">string.h</text>
</a>
</g>
</g>
<!-- Node3&#45;&gt;Node13 -->
<g id="edge12" class="edge">
<title>Node3&#45;&gt;Node13</title>
<path fill="none" stroke="midnightblue" d="M400.68,-60.5C445.75,-53.48 534.3,-38.95 618.25,-20.26"/>
<polygon fill="midnightblue" stroke="midnightblue" points="619.21,-23.63 628.19,-18.02 617.67,-16.8 619.21,-23.63"/>
</g>
<!-- Node14 -->
<g id="node14" class="node">
<title>Node14</title>
<g id="a_node14"><a xlink:title=" ">
<polygon fill="white" stroke="#bfbfbf" points="695.5,-0.5 695.5,-19.5 766.5,-19.5 766.5,-0.5 695.5,-0.5"/>
<text text-anchor="middle" x="731" y="-7.5" font-family="Helvetica,sans-Serif" font-size="10.00">sys/mman.h</text>
</a>
</g>
</g>
<!-- Node3&#45;&gt;Node14 -->
<g id="edge13" class="edge">
<title>Node3&#45;&gt;Node14</title>
<path fill="none" stroke="midnightblue" d="M400.72,-61.38C455.19,-54.6 574.88,-39.11 685.5,-20.18"/>
<polygon fill="midnightblue" stroke="midnightblue" points="686.23,-23.6 695.49,-18.45 685.04,-16.71 686.23,-23.6"/>
</g>
</g>
</svg>
