<?xml version="1.0" encoding="UTF-8" standalone="no"?>
<!DOCTYPE svg PUBLIC "-//W3C//DTD SVG 1.1//EN"
 "http://www.w3.org/Graphics/SVG/1.1/DTD/svg11.dtd">
<!-- Generated by graphviz version 2.43.0 (0)
 -->
<!-- Title: write_archive_data Pages: 1 -->
<svg width="335pt" height="27pt"
 viewBox="0.00 0.00 334.79 27.00" xmlns="http://www.w3.org/2000/svg" xmlns:xlink="http://www.w3.org/1999/xlink">
<g id="graph0" class="graph" transform="scale(1 1) rotate(0) translate(4 23)">
<title>write_archive_data</title>
<polygon fill="white" stroke="transparent" points="-4,4 -4,-23 330.79,-23 330.79,4 -4,4"/>
<!-- Node1 -->
<g id="node1" class="node">
<title>Node1</title>
<g id="a_node1"><a xlink:title=" ">
<polygon fill="#bfbfbf" stroke="black" points="0,-0.5 0,-18.5 99.94,-18.5 99.94,-0.5 0,-0.5"/>
<text text-anchor="middle" x="49.97" y="-6.5" font-family="Helvetica,sans-Serif" font-size="10.00">write_archive_data</text>
</a>
</g>
</g>
<!-- Node2 -->
<g id="node2" class="node">
<title>Node2</title>
<g id="a_node2"><a xlink:href="append_8c.html#a0b27d89890937fcd6ba642c928894f58" target="_top" xlink:title=" ">
<polygon fill="white" stroke="black" points="135.94,-0.5 135.94,-18.5 203.65,-18.5 203.65,-0.5 135.94,-0.5"/>
<text text-anchor="middle" x="169.79" y="-6.5" font-family="Helvetica,sans-Serif" font-size="10.00">append_file</text>
</a>
</g>
</g>
<!-- Node1&#45;&gt;Node2 -->
<g id="edge1" class="edge">
<title>Node1&#45;&gt;Node2</title>
<path fill="none" stroke="midnightblue" d="M100.25,-9.5C108.68,-9.5 117.37,-9.5 125.62,-9.5"/>
<polygon fill="midnightblue" stroke="midnightblue" points="125.78,-13 135.78,-9.5 125.78,-6 125.78,-13"/>
</g>
<!-- Node3 -->
<g id="node3" class="node">
<title>Node3</title>
<g id="a_node3"><a xlink:href="archiver_8h.html#affdb16ec81266263c93640032649b9b4" target="_top" xlink:title=" ">
<polygon fill="white" stroke="black" points="239.65,-0.5 239.65,-18.5 326.79,-18.5 326.79,-0.5 239.65,-0.5"/>
<text text-anchor="middle" x="283.22" y="-6.5" font-family="Helvetica,sans-Serif" font-size="10.00">check_io_errors</text>
</a>
</g>
</g>
<!-- Node2&#45;&gt;Node3 -->
<g id="edge2" class="edge">
<title>Node2&#45;&gt;Node3</title>
<path fill="none" stroke="midnightblue" d="M203.92,-9.5C211.95,-9.5 220.72,-9.5 229.4,-9.5"/>
<polygon fill="midnightblue" stroke="midnightblue" points="229.5,-13 239.5,-9.5 229.5,-6 229.5,-13"/>
</g>
</g>
</svg>
