<?xml version="1.0" encoding="UTF-8" standalone="no"?>
<!DOCTYPE svg PUBLIC "-//W3C//DTD SVG 1.1//EN"
 "http://www.w3.org/Graphics/SVG/1.1/DTD/svg11.dtd">
<!-- Generated by graphviz version 2.43.0 (0)
 -->
<!-- Title: archiver.h Pages: 1 -->
<svg width="373pt" height="82pt"
 viewBox="0.00 0.00 373.30 82.00" xmlns="http://www.w3.org/2000/svg" xmlns:xlink="http://www.w3.org/1999/xlink">
<g id="graph0" class="graph" transform="scale(1 1) rotate(0) translate(4 78)">
<title>archiver.h</title>
<polygon fill="white" stroke="transparent" points="-4,4 -4,-78 369.3,-78 369.3,4 -4,4"/>
<!-- Node1 -->
<g id="node1" class="node">
<title>Node1</title>
<g id="a_node1"><a xlink:title=" ">
<polygon fill="#bfbfbf" stroke="black" points="170.89,-55.5 170.89,-73.5 230.25,-73.5 230.25,-55.5 170.89,-55.5"/>
<text text-anchor="middle" x="200.57" y="-61.5" font-family="Helvetica,sans-Serif" font-size="10.00">archiver.h</text>
</a>
</g>
</g>
<!-- Node2 -->
<g id="node2" class="node">
<title>Node2</title>
<g id="a_node2"><a xlink:href="append_8c.html" target="_top" xlink:title=" ">
<polygon fill="white" stroke="black" points="0,-0.5 0,-18.5 57.15,-18.5 57.15,-0.5 0,-0.5"/>
<text text-anchor="middle" x="28.57" y="-6.5" font-family="Helvetica,sans-Serif" font-size="10.00">append.c</text>
</a>
</g>
</g>
<!-- Node1&#45;&gt;Node2 -->
<g id="edge1" class="edge">
<title>Node1&#45;&gt;Node2</title>
<path fill="none" stroke="midnightblue" d="M164.77,-52.47C131.92,-42.35 84.03,-27.59 54.66,-18.54"/>
<polygon fill="midnightblue" stroke="midnightblue" points="163.86,-55.85 174.45,-55.45 165.92,-49.16 163.86,-55.85"/>
</g>
<!-- Node3 -->
<g id="node3" class="node">
<title>Node3</title>
<g id="a_node3"><a xlink:href="config_8c.html" target="_top" xlink:title=" ">
<polygon fill="white" stroke="black" points="75.34,-0.5 75.34,-18.5 125.81,-18.5 125.81,-0.5 75.34,-0.5"/>
<text text-anchor="middle" x="100.57" y="-6.5" font-family="Helvetica,sans-Serif" font-size="10.00">config.c</text>
</a>
</g>
</g>
<!-- Node1&#45;&gt;Node3 -->
<g id="edge2" class="edge">
<title>Node1&#45;&gt;Node3</title>
<path fill="none" stroke="midnightblue" d="M176.5,-50.74C157.66,-40.76 132.04,-27.18 115.9,-18.63"/>
<polygon fill="midnightblue" stroke="midnightblue" points="174.91,-53.86 185.39,-55.45 178.19,-47.67 174.91,-53.86"/>
</g>
<!-- Node4 -->
<g id="node4" class="node">
<title>Node4</title>
<g id="a_node4"><a xlink:href="header_8c.html" target="_top" xlink:title=" ">
<polygon fill="white" stroke="black" points="143.39,-0.5 143.39,-18.5 197.76,-18.5 197.76,-0.5 143.39,-0.5"/>
<text text-anchor="middle" x="170.57" y="-6.5" font-family="Helvetica,sans-Serif" font-size="10.00">header.c</text>
</a>
</g>
</g>
<!-- Node1&#45;&gt;Node4 -->
<g id="edge3" class="edge">
<title>Node1&#45;&gt;Node4</title>
<path fill="none" stroke="midnightblue" d="M190.87,-46.36C185.59,-37.02 179.29,-25.9 175.13,-18.55"/>
<polygon fill="midnightblue" stroke="midnightblue" points="187.91,-48.24 195.89,-55.22 194.01,-44.79 187.91,-48.24"/>
</g>
<!-- Node5 -->
<g id="node5" class="node">
<title>Node5</title>
<g id="a_node5"><a xlink:href="io_8c.html" target="_top" xlink:title=" ">
<polygon fill="white" stroke="black" points="215.79,-0.5 215.79,-18.5 247.35,-18.5 247.35,-0.5 215.79,-0.5"/>
<text text-anchor="middle" x="231.57" y="-6.5" font-family="Helvetica,sans-Serif" font-size="10.00">io.c</text>
</a>
</g>
</g>
<!-- Node1&#45;&gt;Node5 -->
<g id="edge4" class="edge">
<title>Node1&#45;&gt;Node5</title>
<path fill="none" stroke="midnightblue" d="M210.6,-46.36C216.06,-37.02 222.56,-25.9 226.87,-18.55"/>
<polygon fill="midnightblue" stroke="midnightblue" points="207.45,-44.82 205.42,-55.22 213.49,-48.35 207.45,-44.82"/>
</g>
<!-- Node6 -->
<g id="node6" class="node">
<title>Node6</title>
<g id="a_node6"><a xlink:href="list_8c.html" target="_top" xlink:title=" ">
<polygon fill="white" stroke="black" points="265.57,-0.5 265.57,-18.5 301.57,-18.5 301.57,-0.5 265.57,-0.5"/>
<text text-anchor="middle" x="283.57" y="-6.5" font-family="Helvetica,sans-Serif" font-size="10.00">list.c</text>
</a>
</g>
</g>
<!-- Node1&#45;&gt;Node6 -->
<g id="edge5" class="edge">
<title>Node1&#45;&gt;Node6</title>
<path fill="none" stroke="midnightblue" d="M221.64,-50.05C237.16,-40.14 257.76,-26.98 270.85,-18.63"/>
<polygon fill="midnightblue" stroke="midnightblue" points="219.72,-47.12 213.18,-55.45 223.49,-53.02 219.72,-47.12"/>
</g>
<!-- Node7 -->
<g id="node7" class="node">
<title>Node7</title>
<g id="a_node7"><a xlink:href="main_8c.html" target="_top" xlink:title=" ">
<polygon fill="white" stroke="black" points="319.85,-0.5 319.85,-18.5 365.3,-18.5 365.3,-0.5 319.85,-0.5"/>
<text text-anchor="middle" x="342.57" y="-6.5" font-family="Helvetica,sans-Serif" font-size="10.00">main.c</text>
</a>
</g>
</g>
<!-- Node1&#45;&gt;Node7 -->
<g id="edge6" class="edge">
<title>Node1&#45;&gt;Node7</title>
<path fill="none" stroke="midnightblue" d="M231.51,-51.95C258.5,-41.88 296.95,-27.53 320.8,-18.63"/>
<polygon fill="midnightblue" stroke="midnightblue" points="230.29,-48.67 222.14,-55.45 232.73,-55.23 230.29,-48.67"/>
</g>
</g>
</svg>
