<?xml version="1.0" encoding="UTF-8" standalone="no"?>
<!DOCTYPE svg PUBLIC "-//W3C//DTD SVG 1.1//EN"
 "http://www.w3.org/Graphics/SVG/1.1/DTD/svg11.dtd">
<!-- Generated by graphviz version 2.43.0 (0)
 -->
<!-- Title: write_archive_header Pages: 1 -->
<svg width="304pt" height="27pt"
 viewBox="0.00 0.00 304.20 27.00" xmlns="http://www.w3.org/2000/svg" xmlns:xlink="http://www.w3.org/1999/xlink">
<g id="graph0" class="graph" transform="scale(1 1) rotate(0) translate(4 23)">
<title>write_archive_header</title>
<polygon fill="white" stroke="transparent" points="-4,4 -4,-23 300.2,-23 300.2,4 -4,4"/>
<!-- Node1 -->
<g id="node1" class="node">
<title>Node1</title>
<g id="a_node1"><a xlink:title=" ">
<polygon fill="#bfbfbf" stroke="black" points="184.59,-0.5 184.59,-18.5 296.2,-18.5 296.2,-0.5 184.59,-0.5"/>
<text text-anchor="middle" x="240.39" y="-6.5" font-family="Helvetica,sans-Serif" font-size="10.00">write_archive_header</text>
</a>
</g>
</g>
<!-- Node2 -->
<g id="node2" class="node">
<title>Node2</title>
<g id="a_node2"><a xlink:href="archiver_8h.html#a96bfcefbf5ecd984a75cc98eb53f32d8" target="_top" xlink:title=" ">
<polygon fill="white" stroke="black" points="73.67,-0.5 73.67,-18.5 148.59,-18.5 148.59,-0.5 73.67,-0.5"/>
<text text-anchor="middle" x="111.13" y="-6.5" font-family="Helvetica,sans-Serif" font-size="10.00">write_archive</text>
</a>
</g>
</g>
<!-- Node1&#45;&gt;Node2 -->
<g id="edge1" class="edge">
<title>Node1&#45;&gt;Node2</title>
<path fill="none" stroke="midnightblue" d="M174.17,-9.5C165.5,-9.5 156.88,-9.5 148.94,-9.5"/>
<polygon fill="midnightblue" stroke="midnightblue" points="174.31,-13 184.31,-9.5 174.31,-6 174.31,-13"/>
</g>
<!-- Node3 -->
<g id="node3" class="node">
<title>Node3</title>
<g id="a_node3"><a xlink:href="main_8c.html#a3c04138a5bfe5d72780bb7e82a18e627" target="_top" xlink:title=" ">
<polygon fill="white" stroke="black" points="0,-0.5 0,-18.5 37.67,-18.5 37.67,-0.5 0,-0.5"/>
<text text-anchor="middle" x="18.84" y="-6.5" font-family="Helvetica,sans-Serif" font-size="10.00">main</text>
</a>
</g>
</g>
<!-- Node2&#45;&gt;Node3 -->
<g id="edge2" class="edge">
<title>Node2&#45;&gt;Node3</title>
<path fill="none" stroke="midnightblue" d="M63.42,-9.5C54.32,-9.5 45.29,-9.5 37.84,-9.5"/>
<polygon fill="midnightblue" stroke="midnightblue" points="63.67,-13 73.67,-9.5 63.66,-6 63.67,-13"/>
</g>
</g>
</svg>
