<?xml version="1.0" encoding="UTF-8" standalone="no"?>
<!DOCTYPE svg PUBLIC "-//W3C//DTD SVG 1.1//EN"
 "http://www.w3.org/Graphics/SVG/1.1/DTD/svg11.dtd">
<!-- Generated by graphviz version 2.43.0 (0)
 -->
<!-- Title: check_io_errors Pages: 1 -->
<svg width="531pt" height="65pt"
 viewBox="0.00 0.00 531.05 65.00" xmlns="http://www.w3.org/2000/svg" xmlns:xlink="http://www.w3.org/1999/xlink">
<g id="graph0" class="graph" transform="scale(1 1) rotate(0) translate(4 61)">
<title>check_io_errors</title>
<polygon fill="white" stroke="transparent" points="-4,4 -4,-61 527.05,-61 527.05,4 -4,4"/>
<!-- Node1 -->
<g id="node1" class="node">
<title>Node1</title>
<g id="a_node1"><a xlink:title=" ">
<polygon fill="#bfbfbf" stroke="black" points="435.91,-19.5 435.91,-37.5 523.05,-37.5 523.05,-19.5 435.91,-19.5"/>
<text text-anchor="middle" x="479.48" y="-25.5" font-family="Helvetica,sans-Serif" font-size="10.00">check_io_errors</text>
</a>
</g>
</g>
<!-- Node2 -->
<g id="node2" class="node">
<title>Node2</title>
<g id="a_node2"><a xlink:href="archiver_8h.html#a0b27d89890937fcd6ba642c928894f58" target="_top" xlink:title=" ">
<polygon fill="white" stroke="black" points="332.2,-38.5 332.2,-56.5 399.91,-56.5 399.91,-38.5 332.2,-38.5"/>
<text text-anchor="middle" x="366.05" y="-44.5" font-family="Helvetica,sans-Serif" font-size="10.00">append_file</text>
</a>
</g>
</g>
<!-- Node1&#45;&gt;Node2 -->
<g id="edge1" class="edge">
<title>Node1&#45;&gt;Node2</title>
<path fill="none" stroke="midnightblue" d="M425.63,-37.51C416.96,-38.99 408.2,-40.48 400.18,-41.85"/>
<polygon fill="midnightblue" stroke="midnightblue" points="426.45,-40.92 435.72,-35.79 425.27,-34.02 426.45,-40.92"/>
</g>
<!-- Node6 -->
<g id="node6" class="node">
<title>Node6</title>
<g id="a_node6"><a xlink:href="header_8c.html#a243891ab947a0803bf1c36b5fbe92f26" target="_top" xlink:title=" ">
<polygon fill="white" stroke="black" points="184.59,-0.5 184.59,-18.5 296.2,-18.5 296.2,-0.5 184.59,-0.5"/>
<text text-anchor="middle" x="240.39" y="-6.5" font-family="Helvetica,sans-Serif" font-size="10.00">write_archive_header</text>
</a>
</g>
</g>
<!-- Node1&#45;&gt;Node6 -->
<g id="edge5" class="edge">
<title>Node1&#45;&gt;Node6</title>
<path fill="none" stroke="midnightblue" d="M425.84,-24.28C387.34,-21.2 335.24,-17.02 296.24,-13.9"/>
<polygon fill="midnightblue" stroke="midnightblue" points="425.57,-27.77 435.82,-25.08 426.13,-20.79 425.57,-27.77"/>
</g>
<!-- Node3 -->
<g id="node3" class="node">
<title>Node3</title>
<g id="a_node3"><a xlink:href="archiver_8h.html#acaec22fd2994956cbc5b906c5a4cd119" target="_top" xlink:title=" ">
<polygon fill="white" stroke="black" points="190.42,-37.5 190.42,-55.5 290.36,-55.5 290.36,-37.5 190.42,-37.5"/>
<text text-anchor="middle" x="240.39" y="-43.5" font-family="Helvetica,sans-Serif" font-size="10.00">write_archive_data</text>
</a>
</g>
</g>
<!-- Node2&#45;&gt;Node3 -->
<g id="edge2" class="edge">
<title>Node2&#45;&gt;Node3</title>
<path fill="none" stroke="midnightblue" d="M321.7,-47.15C311.6,-47.07 300.77,-46.98 290.44,-46.9"/>
<polygon fill="midnightblue" stroke="midnightblue" points="321.89,-50.65 331.91,-47.23 321.94,-43.65 321.89,-50.65"/>
</g>
<!-- Node4 -->
<g id="node4" class="node">
<title>Node4</title>
<g id="a_node4"><a xlink:href="archiver_8h.html#a96bfcefbf5ecd984a75cc98eb53f32d8" target="_top" xlink:title=" ">
<polygon fill="white" stroke="black" points="73.67,-18.5 73.67,-36.5 148.59,-36.5 148.59,-18.5 73.67,-18.5"/>
<text text-anchor="middle" x="111.13" y="-24.5" font-family="Helvetica,sans-Serif" font-size="10.00">write_archive</text>
</a>
</g>
</g>
<!-- Node3&#45;&gt;Node4 -->
<g id="edge3" class="edge">
<title>Node3&#45;&gt;Node4</title>
<path fill="none" stroke="midnightblue" d="M180.1,-37.65C169.49,-36.06 158.71,-34.45 148.96,-33"/>
<polygon fill="midnightblue" stroke="midnightblue" points="179.78,-41.14 190.19,-39.15 180.82,-34.22 179.78,-41.14"/>
</g>
<!-- Node5 -->
<g id="node5" class="node">
<title>Node5</title>
<g id="a_node5"><a xlink:href="main_8c.html#a3c04138a5bfe5d72780bb7e82a18e627" target="_top" xlink:title=" ">
<polygon fill="white" stroke="black" points="0,-18.5 0,-36.5 37.67,-36.5 37.67,-18.5 0,-18.5"/>
<text text-anchor="middle" x="18.84" y="-24.5" font-family="Helvetica,sans-Serif" font-size="10.00">main</text>
</a>
</g>
</g>
<!-- Node4&#45;&gt;Node5 -->
<g id="edge4" class="edge">
<title>Node4&#45;&gt;Node5</title>
<path fill="none" stroke="midnightblue" d="M63.42,-27.5C54.32,-27.5 45.29,-27.5 37.84,-27.5"/>
<polygon fill="midnightblue" stroke="midnightblue" points="63.67,-31 73.67,-27.5 63.66,-24 63.67,-31"/>
</g>
<!-- Node6&#45;&gt;Node4 -->
<g id="edge6" class="edge">
<title>Node6&#45;&gt;Node4</title>
<path fill="none" stroke="midnightblue" d="M174.17,-18.73C165.5,-19.95 156.88,-21.17 148.94,-22.29"/>
<polygon fill="midnightblue" stroke="midnightblue" points="174.9,-22.16 184.31,-17.29 173.92,-15.23 174.9,-22.16"/>
</g>
</g>
</svg>
