<?xml version="1.0" encoding="UTF-8" standalone="no"?>
<!DOCTYPE svg PUBLIC "-//W3C//DTD SVG 1.1//EN"
 "http://www.w3.org/Graphics/SVG/1.1/DTD/svg11.dtd">
<!-- Generated by graphviz version 2.43.0 (0)
 -->
<!-- Title: write_archive Pages: 1 -->
<svg width="490pt" height="65pt"
 viewBox="0.00 0.00 489.60 65.00" xmlns="http://www.w3.org/2000/svg" xmlns:xlink="http://www.w3.org/1999/xlink">
<g id="graph0" class="graph" transform="scale(1 1) rotate(0) translate(4 61)">
<title>write_archive</title>
<polygon fill="white" stroke="transparent" points="-4,4 -4,-61 485.6,-61 485.6,4 -4,4"/>
<!-- Node1 -->
<g id="node1" class="node">
<title>Node1</title>
<g id="a_node1"><a xlink:title=" ">
<polygon fill="#bfbfbf" stroke="black" points="0,-19.5 0,-37.5 74.91,-37.5 74.91,-19.5 0,-19.5"/>
<text text-anchor="middle" x="37.46" y="-25.5" font-family="Helvetica,sans-Serif" font-size="10.00">write_archive</text>
</a>
</g>
</g>
<!-- Node2 -->
<g id="node2" class="node">
<title>Node2</title>
<g id="a_node2"><a xlink:href="append_8c.html#acaec22fd2994956cbc5b906c5a4cd119" target="_top" xlink:title=" ">
<polygon fill="white" stroke="black" points="110.91,-38.5 110.91,-56.5 210.85,-56.5 210.85,-38.5 110.91,-38.5"/>
<text text-anchor="middle" x="160.88" y="-44.5" font-family="Helvetica,sans-Serif" font-size="10.00">write_archive_data</text>
</a>
</g>
</g>
<!-- Node1&#45;&gt;Node2 -->
<g id="edge1" class="edge">
<title>Node1&#45;&gt;Node2</title>
<path fill="none" stroke="midnightblue" d="M75.22,-34.25C83.24,-35.51 91.94,-36.87 100.59,-38.22"/>
<polygon fill="midnightblue" stroke="midnightblue" points="100.27,-41.71 110.69,-39.8 101.35,-34.8 100.27,-41.71"/>
</g>
<!-- Node5 -->
<g id="node5" class="node">
<title>Node5</title>
<g id="a_node5"><a xlink:href="archiver_8h.html#a243891ab947a0803bf1c36b5fbe92f26" target="_top" xlink:title=" ">
<polygon fill="white" stroke="black" points="246.85,-0.5 246.85,-18.5 358.46,-18.5 358.46,-0.5 246.85,-0.5"/>
<text text-anchor="middle" x="302.65" y="-6.5" font-family="Helvetica,sans-Serif" font-size="10.00">write_archive_header</text>
</a>
</g>
</g>
<!-- Node1&#45;&gt;Node5 -->
<g id="edge4" class="edge">
<title>Node1&#45;&gt;Node5</title>
<path fill="none" stroke="midnightblue" d="M75.05,-25.86C116.68,-22.85 185.46,-17.89 236.34,-14.21"/>
<polygon fill="midnightblue" stroke="midnightblue" points="236.87,-17.69 246.59,-13.48 236.36,-10.7 236.87,-17.69"/>
</g>
<!-- Node3 -->
<g id="node3" class="node">
<title>Node3</title>
<g id="a_node3"><a xlink:href="append_8c.html#a0b27d89890937fcd6ba642c928894f58" target="_top" xlink:title=" ">
<polygon fill="white" stroke="black" points="268.79,-37.5 268.79,-55.5 336.51,-55.5 336.51,-37.5 268.79,-37.5"/>
<text text-anchor="middle" x="302.65" y="-43.5" font-family="Helvetica,sans-Serif" font-size="10.00">append_file</text>
</a>
</g>
</g>
<!-- Node2&#45;&gt;Node3 -->
<g id="edge2" class="edge">
<title>Node2&#45;&gt;Node3</title>
<path fill="none" stroke="midnightblue" d="M211.16,-47.15C226.61,-47.04 243.54,-46.92 258.54,-46.81"/>
<polygon fill="midnightblue" stroke="midnightblue" points="258.59,-50.31 268.56,-46.74 258.54,-43.31 258.59,-50.31"/>
</g>
<!-- Node4 -->
<g id="node4" class="node">
<title>Node4</title>
<g id="a_node4"><a xlink:href="archiver_8h.html#affdb16ec81266263c93640032649b9b4" target="_top" xlink:title=" ">
<polygon fill="white" stroke="black" points="394.46,-18.5 394.46,-36.5 481.6,-36.5 481.6,-18.5 394.46,-18.5"/>
<text text-anchor="middle" x="438.03" y="-24.5" font-family="Helvetica,sans-Serif" font-size="10.00">check_io_errors</text>
</a>
</g>
</g>
<!-- Node3&#45;&gt;Node4 -->
<g id="edge3" class="edge">
<title>Node3&#45;&gt;Node4</title>
<path fill="none" stroke="midnightblue" d="M336.62,-41.8C350.92,-39.77 368.03,-37.33 384.04,-35.05"/>
<polygon fill="midnightblue" stroke="midnightblue" points="384.95,-38.45 394.36,-33.58 383.97,-31.52 384.95,-38.45"/>
</g>
<!-- Node5&#45;&gt;Node4 -->
<g id="edge5" class="edge">
<title>Node5&#45;&gt;Node4</title>
<path fill="none" stroke="midnightblue" d="M358.67,-16.93C367.14,-18.07 375.87,-19.25 384.28,-20.38"/>
<polygon fill="midnightblue" stroke="midnightblue" points="383.98,-23.87 394.36,-21.74 384.92,-16.94 383.98,-23.87"/>
</g>
</g>
</svg>
