<?xml version="1.0" encoding="UTF-8" standalone="no"?>
<!DOCTYPE svg PUBLIC "-//W3C//DTD SVG 1.1//EN"
 "http://www.w3.org/Graphics/SVG/1.1/DTD/svg11.dtd">
<!-- Generated by graphviz version 2.43.0 (0)
 -->
<!-- Title: header.c Pages: 1 -->
<svg width="765pt" height="137pt"
 viewBox="0.00 0.00 764.68 137.00" xmlns="http://www.w3.org/2000/svg" xmlns:xlink="http://www.w3.org/1999/xlink">
<g id="graph0" class="graph" transform="scale(1 1) rotate(0) translate(4 133)">
<title>header.c</title>
<polygon fill="white" stroke="transparent" points="-4,4 -4,-133 760.68,-133 760.68,4 -4,4"/>
<!-- Node1 -->
<g id="node1" class="node">
<title>Node1</title>
<g id="a_node1"><a xlink:title=" ">
<polygon fill="#bfbfbf" stroke="black" points="340.55,-110.5 340.55,-128.5 394.92,-128.5 394.92,-110.5 340.55,-110.5"/>
<text text-anchor="middle" x="367.73" y="-116.5" font-family="Helvetica,sans-Serif" font-size="10.00">header.c</text>
</a>
</g>
</g>
<!-- Node2 -->
<g id="node2" class="node">
<title>Node2</title>
<g id="a_node2"><a xlink:href="archiver_8h.html" target="_top" xlink:title=" ">
<polygon fill="white" stroke="black" points="338.05,-55.5 338.05,-73.5 397.41,-73.5 397.41,-55.5 338.05,-55.5"/>
<text text-anchor="middle" x="367.73" y="-61.5" font-family="Helvetica,sans-Serif" font-size="10.00">archiver.h</text>
</a>
</g>
</g>
<!-- Node1&#45;&gt;Node2 -->
<g id="edge1" class="edge">
<title>Node1&#45;&gt;Node2</title>
<path fill="none" stroke="midnightblue" d="M367.73,-110.22C367.73,-103.18 367.73,-92.81 367.73,-83.83"/>
<polygon fill="midnightblue" stroke="midnightblue" points="371.23,-83.55 367.73,-73.55 364.23,-83.55 371.23,-83.55"/>
</g>
<!-- Node3 -->
<g id="node3" class="node">
<title>Node3</title>
<g id="a_node3"><a xlink:title=" ">
<polygon fill="white" stroke="#bfbfbf" points="0,-0.5 0,-18.5 45.46,-18.5 45.46,-0.5 0,-0.5"/>
<text text-anchor="middle" x="22.73" y="-6.5" font-family="Helvetica,sans-Serif" font-size="10.00">stdio.h</text>
</a>
</g>
</g>
<!-- Node2&#45;&gt;Node3 -->
<g id="edge2" class="edge">
<title>Node2&#45;&gt;Node3</title>
<path fill="none" stroke="midnightblue" d="M337.75,-60.43C283.42,-54.62 164.95,-40.77 55.6,-18.95"/>
<polygon fill="midnightblue" stroke="midnightblue" points="56.22,-15.51 45.73,-16.96 54.83,-22.37 56.22,-15.51"/>
</g>
<!-- Node4 -->
<g id="node4" class="node">
<title>Node4</title>
<g id="a_node4"><a xlink:title=" ">
<polygon fill="white" stroke="#bfbfbf" points="63.89,-0.5 63.89,-18.5 111.57,-18.5 111.57,-0.5 63.89,-0.5"/>
<text text-anchor="middle" x="87.73" y="-6.5" font-family="Helvetica,sans-Serif" font-size="10.00">stdlib.h</text>
</a>
</g>
</g>
<!-- Node2&#45;&gt;Node4 -->
<g id="edge3" class="edge">
<title>Node2&#45;&gt;Node4</title>
<path fill="none" stroke="midnightblue" d="M337.8,-58.94C292.81,-51.92 204.9,-37.51 121.66,-19.3"/>
<polygon fill="midnightblue" stroke="midnightblue" points="122.31,-15.86 111.79,-17.12 120.8,-22.69 122.31,-15.86"/>
</g>
<!-- Node5 -->
<g id="node5" class="node">
<title>Node5</title>
<g id="a_node5"><a xlink:title=" ">
<polygon fill="white" stroke="#bfbfbf" points="129.22,-0.5 129.22,-18.5 180.24,-18.5 180.24,-0.5 129.22,-0.5"/>
<text text-anchor="middle" x="154.73" y="-6.5" font-family="Helvetica,sans-Serif" font-size="10.00">unistd.h</text>
</a>
</g>
</g>
<!-- Node2&#45;&gt;Node5 -->
<g id="edge4" class="edge">
<title>Node2&#45;&gt;Node5</title>
<path fill="none" stroke="midnightblue" d="M337.67,-56.02C298.87,-46.36 231.47,-29.59 190.2,-19.33"/>
<polygon fill="midnightblue" stroke="midnightblue" points="190.86,-15.88 180.31,-16.86 189.17,-22.68 190.86,-15.88"/>
</g>
<!-- Node6 -->
<g id="node6" class="node">
<title>Node6</title>
<g id="a_node6"><a xlink:title=" ">
<polygon fill="white" stroke="#bfbfbf" points="198.61,-0.5 198.61,-18.5 246.85,-18.5 246.85,-0.5 198.61,-0.5"/>
<text text-anchor="middle" x="222.73" y="-6.5" font-family="Helvetica,sans-Serif" font-size="10.00">stdint.h</text>
</a>
</g>
</g>
<!-- Node2&#45;&gt;Node6 -->
<g id="edge5" class="edge">
<title>Node2&#45;&gt;Node6</title>
<path fill="none" stroke="midnightblue" d="M345.71,-55.45C321.44,-46.58 282.18,-32.23 254.56,-22.13"/>
<polygon fill="midnightblue" stroke="midnightblue" points="255.55,-18.77 244.96,-18.63 253.15,-25.35 255.55,-18.77"/>
</g>
<!-- Node7 -->
<g id="node7" class="node">
<title>Node7</title>
<g id="a_node7"><a xlink:title=" ">
<polygon fill="white" stroke="#bfbfbf" points="264.66,-0.5 264.66,-18.5 316.8,-18.5 316.8,-0.5 264.66,-0.5"/>
<text text-anchor="middle" x="290.73" y="-6.5" font-family="Helvetica,sans-Serif" font-size="10.00">getopt.h</text>
</a>
</g>
</g>
<!-- Node2&#45;&gt;Node7 -->
<g id="edge6" class="edge">
<title>Node2&#45;&gt;Node7</title>
<path fill="none" stroke="midnightblue" d="M356.04,-55.45C344.05,-47.2 325.19,-34.22 310.81,-24.32"/>
<polygon fill="midnightblue" stroke="midnightblue" points="312.76,-21.41 302.54,-18.63 308.79,-27.18 312.76,-21.41"/>
</g>
<!-- Node8 -->
<g id="node8" class="node">
<title>Node8</title>
<g id="a_node8"><a xlink:title=" ">
<polygon fill="white" stroke="#bfbfbf" points="334.72,-0.5 334.72,-18.5 400.74,-18.5 400.74,-0.5 334.72,-0.5"/>
<text text-anchor="middle" x="367.73" y="-6.5" font-family="Helvetica,sans-Serif" font-size="10.00">sys/types.h</text>
</a>
</g>
</g>
<!-- Node2&#45;&gt;Node8 -->
<g id="edge7" class="edge">
<title>Node2&#45;&gt;Node8</title>
<path fill="none" stroke="midnightblue" d="M367.73,-55.22C367.73,-48.18 367.73,-37.81 367.73,-28.83"/>
<polygon fill="midnightblue" stroke="midnightblue" points="371.23,-28.55 367.73,-18.55 364.23,-28.55 371.23,-28.55"/>
</g>
<!-- Node9 -->
<g id="node9" class="node">
<title>Node9</title>
<g id="a_node9"><a xlink:title=" ">
<polygon fill="white" stroke="#bfbfbf" points="418.61,-0.5 418.61,-18.5 476.85,-18.5 476.85,-0.5 418.61,-0.5"/>
<text text-anchor="middle" x="447.73" y="-6.5" font-family="Helvetica,sans-Serif" font-size="10.00">sys/stat.h</text>
</a>
</g>
</g>
<!-- Node2&#45;&gt;Node9 -->
<g id="edge8" class="edge">
<title>Node2&#45;&gt;Node9</title>
<path fill="none" stroke="midnightblue" d="M379.88,-55.45C392.33,-47.2 411.93,-34.22 426.87,-24.32"/>
<polygon fill="midnightblue" stroke="midnightblue" points="429.06,-27.07 435.47,-18.63 425.2,-21.23 429.06,-27.07"/>
</g>
<!-- Node10 -->
<g id="node10" class="node">
<title>Node10</title>
<g id="a_node10"><a xlink:title=" ">
<polygon fill="white" stroke="#bfbfbf" points="494.39,-0.5 494.39,-18.5 537.07,-18.5 537.07,-0.5 494.39,-0.5"/>
<text text-anchor="middle" x="515.73" y="-6.5" font-family="Helvetica,sans-Serif" font-size="10.00">fcntl.h</text>
</a>
</g>
</g>
<!-- Node2&#45;&gt;Node10 -->
<g id="edge9" class="edge">
<title>Node2&#45;&gt;Node10</title>
<path fill="none" stroke="midnightblue" d="M390.21,-55.45C415.27,-46.48 455.99,-31.89 484.22,-21.78"/>
<polygon fill="midnightblue" stroke="midnightblue" points="485.77,-24.95 494.01,-18.28 483.41,-18.36 485.77,-24.95"/>
</g>
<!-- Node11 -->
<g id="node11" class="node">
<title>Node11</title>
<g id="a_node11"><a xlink:title=" ">
<polygon fill="white" stroke="#bfbfbf" points="554.89,-0.5 554.89,-18.5 602.57,-18.5 602.57,-0.5 554.89,-0.5"/>
<text text-anchor="middle" x="578.73" y="-6.5" font-family="Helvetica,sans-Serif" font-size="10.00">errno.h</text>
</a>
</g>
</g>
<!-- Node2&#45;&gt;Node11 -->
<g id="edge10" class="edge">
<title>Node2&#45;&gt;Node11</title>
<path fill="none" stroke="midnightblue" d="M397.67,-56.08C431.12,-47.78 487.15,-33.84 544.6,-19.27"/>
<polygon fill="midnightblue" stroke="midnightblue" points="545.75,-22.59 554.59,-16.74 544.03,-15.81 545.75,-22.59"/>
</g>
<!-- Node12 -->
<g id="node12" class="node">
<title>Node12</title>
<g id="a_node12"><a xlink:title=" ">
<polygon fill="white" stroke="#bfbfbf" points="620.33,-0.5 620.33,-18.5 669.13,-18.5 669.13,-0.5 620.33,-0.5"/>
<text text-anchor="middle" x="644.73" y="-6.5" font-family="Helvetica,sans-Serif" font-size="10.00">string.h</text>
</a>
</g>
</g>
<!-- Node2&#45;&gt;Node12 -->
<g id="edge11" class="edge">
<title>Node2&#45;&gt;Node12</title>
<path fill="none" stroke="midnightblue" d="M397.54,-58.77C441.9,-51.58 528.09,-37.03 610.5,-19.15"/>
<polygon fill="midnightblue" stroke="midnightblue" points="611.25,-22.57 620.27,-17.01 609.75,-15.73 611.25,-22.57"/>
</g>
<!-- Node13 -->
<g id="node13" class="node">
<title>Node13</title>
<g id="a_node13"><a xlink:title=" ">
<polygon fill="white" stroke="#bfbfbf" points="686.78,-0.5 686.78,-18.5 756.68,-18.5 756.68,-0.5 686.78,-0.5"/>
<text text-anchor="middle" x="721.73" y="-6.5" font-family="Helvetica,sans-Serif" font-size="10.00">sys/mman.h</text>
</a>
</g>
</g>
<!-- Node2&#45;&gt;Node13 -->
<g id="edge12" class="edge">
<title>Node2&#45;&gt;Node13</title>
<path fill="none" stroke="midnightblue" d="M397.73,-59.68C451.49,-52.74 567.99,-37.21 676.55,-19.13"/>
<polygon fill="midnightblue" stroke="midnightblue" points="677.41,-22.53 686.69,-17.43 676.25,-15.63 677.41,-22.53"/>
</g>
</g>
</svg>
