<?xml version="1.0" encoding="UTF-8" standalone="no"?>
<!DOCTYPE svg PUBLIC "-//W3C//DTD SVG 1.1//EN"
 "http://www.w3.org/Graphics/SVG/1.1/DTD/svg11.dtd">
<!-- Generated by graphviz version 2.43.0 (0)
 -->
<!-- Title: main Pages: 1 -->
<svg width="610pt" height="268pt"
 viewBox="0.00 0.00 609.97 268.00" xmlns="http://www.w3.org/2000/svg" xmlns:xlink="http://www.w3.org/1999/xlink">
<g id="graph0" class="graph" transform="scale(1 1) rotate(0) translate(4 264)">
<title>main</title>
<polygon fill="white" stroke="transparent" points="-4,4 -4,-264 605.97,-264 605.97,4 -4,4"/>
<!-- Node1 -->
<g id="node1" class="node">
<title>Node1</title>
<g id="a_node1"><a xlink:title=" ">
<polygon fill="#bfbfbf" stroke="black" points="0,-130.5 0,-148.5 37.67,-148.5 37.67,-130.5 0,-130.5"/>
<text text-anchor="middle" x="18.84" y="-136.5" font-family="Helvetica,sans-Serif" font-size="10.00">main</text>
</a>
</g>
</g>
<!-- Node2 -->
<g id="node2" class="node">
<title>Node2</title>
<g id="a_node2"><a xlink:href="archiver_8h.html#ae2ded8e601a990b8a9f36dd7053e305e" target="_top" xlink:title=" ">
<polygon fill="white" stroke="black" points="108.97,-241.5 108.97,-259.5 159.99,-259.5 159.99,-241.5 108.97,-241.5"/>
<text text-anchor="middle" x="134.48" y="-247.5" font-family="Helvetica,sans-Serif" font-size="10.00">cleanup</text>
</a>
</g>
</g>
<!-- Node1&#45;&gt;Node2 -->
<g id="edge1" class="edge">
<title>Node1&#45;&gt;Node2</title>
<path fill="none" stroke="midnightblue" d="M22.6,-148.69C28.67,-167.35 45,-209.82 73.67,-232.5 80.97,-238.27 90.08,-242.19 98.98,-244.86"/>
<polygon fill="midnightblue" stroke="midnightblue" points="98.27,-248.29 108.83,-247.37 100,-241.51 98.27,-248.29"/>
</g>
<!-- Node3 -->
<g id="node3" class="node">
<title>Node3</title>
<g id="a_node3"><a xlink:href="archiver_8h.html#afe6f403c5b87fb936c34a77565b9ea65" target="_top" xlink:title=" ">
<polygon fill="white" stroke="black" points="82.29,-204.5 82.29,-222.5 186.67,-222.5 186.67,-204.5 82.29,-204.5"/>
<text text-anchor="middle" x="134.48" y="-210.5" font-family="Helvetica,sans-Serif" font-size="10.00">list_archive_content</text>
</a>
</g>
</g>
<!-- Node1&#45;&gt;Node3 -->
<g id="edge2" class="edge">
<title>Node1&#45;&gt;Node3</title>
<path fill="none" stroke="midnightblue" d="M26.39,-148.86C35.57,-161.29 53.42,-183.12 73.67,-195.5 76.82,-197.42 80.18,-199.15 83.66,-200.71"/>
<polygon fill="midnightblue" stroke="midnightblue" points="82.42,-203.98 93.01,-204.42 85.01,-197.48 82.42,-203.98"/>
</g>
<!-- Node4 -->
<g id="node4" class="node">
<title>Node4</title>
<g id="a_node4"><a xlink:href="archiver_8h.html#ab2df7bd1010abbdb8913f8395b11125b" target="_top" xlink:title=" ">
<polygon fill="white" stroke="black" points="87.29,-167.5 87.29,-185.5 181.67,-185.5 181.67,-167.5 87.29,-167.5"/>
<text text-anchor="middle" x="134.48" y="-173.5" font-family="Helvetica,sans-Serif" font-size="10.00">open_archive_file</text>
</a>
</g>
</g>
<!-- Node1&#45;&gt;Node4 -->
<g id="edge3" class="edge">
<title>Node1&#45;&gt;Node4</title>
<path fill="none" stroke="midnightblue" d="M37.71,-146.04C48.16,-149.81 61.62,-154.56 73.67,-158.5 79.76,-160.49 86.22,-162.52 92.56,-164.46"/>
<polygon fill="midnightblue" stroke="midnightblue" points="91.77,-167.88 102.35,-167.43 93.8,-161.18 91.77,-167.88"/>
</g>
<!-- Node5 -->
<g id="node5" class="node">
<title>Node5</title>
<g id="a_node5"><a xlink:href="archiver_8h.html#aa56ba0dcc55b910791b86a4b9db1c8b6" target="_top" xlink:title=" ">
<polygon fill="white" stroke="black" points="73.67,-130.5 73.67,-148.5 195.29,-148.5 195.29,-130.5 73.67,-130.5"/>
<text text-anchor="middle" x="134.48" y="-136.5" font-family="Helvetica,sans-Serif" font-size="10.00">process_command_line</text>
</a>
</g>
</g>
<!-- Node1&#45;&gt;Node5 -->
<g id="edge4" class="edge">
<title>Node1&#45;&gt;Node5</title>
<path fill="none" stroke="midnightblue" d="M37.84,-139.5C45.01,-139.5 53.76,-139.5 63.03,-139.5"/>
<polygon fill="midnightblue" stroke="midnightblue" points="63.23,-143 73.23,-139.5 63.23,-136 63.23,-143"/>
</g>
<!-- Node6 -->
<g id="node6" class="node">
<title>Node6</title>
<g id="a_node6"><a xlink:href="archiver_8h.html#a3810d9bd5a4318b0301026b15e41ba3a" target="_top" xlink:title=" ">
<polygon fill="white" stroke="black" points="79.22,-93.5 79.22,-111.5 189.74,-111.5 189.74,-93.5 79.22,-93.5"/>
<text text-anchor="middle" x="134.48" y="-99.5" font-family="Helvetica,sans-Serif" font-size="10.00">read_archive_header</text>
</a>
</g>
</g>
<!-- Node1&#45;&gt;Node6 -->
<g id="edge5" class="edge">
<title>Node1&#45;&gt;Node6</title>
<path fill="none" stroke="midnightblue" d="M37.76,-133.43C48.22,-129.91 61.68,-125.41 73.67,-121.5 80.43,-119.3 87.61,-116.99 94.58,-114.76"/>
<polygon fill="midnightblue" stroke="midnightblue" points="96.08,-117.96 104.55,-111.59 93.96,-111.29 96.08,-117.96"/>
</g>
<!-- Node7 -->
<g id="node7" class="node">
<title>Node7</title>
<g id="a_node7"><a xlink:href="archiver_8h.html#a1529ae6b8e2ca8ea9f4368dbf17b965e" target="_top" xlink:title=" ">
<polygon fill="white" stroke="black" points="112.86,-56.5 112.86,-74.5 156.1,-74.5 156.1,-56.5 112.86,-56.5"/>
<text text-anchor="middle" x="134.48" y="-62.5" font-family="Helvetica,sans-Serif" font-size="10.00">usage</text>
</a>
</g>
</g>
<!-- Node1&#45;&gt;Node7 -->
<g id="edge6" class="edge">
<title>Node1&#45;&gt;Node7</title>
<path fill="none" stroke="midnightblue" d="M26.46,-130.36C35.71,-118.2 53.65,-96.83 73.67,-84.5 82.56,-79.03 93.16,-75 102.96,-72.09"/>
<polygon fill="midnightblue" stroke="midnightblue" points="104.02,-75.43 112.76,-69.45 102.2,-68.67 104.02,-75.43"/>
</g>
<!-- Node8 -->
<g id="node8" class="node">
<title>Node8</title>
<g id="a_node8"><a xlink:href="append_8c.html#a96bfcefbf5ecd984a75cc98eb53f32d8" target="_top" xlink:title=" ">
<polygon fill="white" stroke="black" points="97.02,-19.5 97.02,-37.5 171.94,-37.5 171.94,-19.5 97.02,-19.5"/>
<text text-anchor="middle" x="134.48" y="-25.5" font-family="Helvetica,sans-Serif" font-size="10.00">write_archive</text>
</a>
</g>
</g>
<!-- Node1&#45;&gt;Node8 -->
<g id="edge7" class="edge">
<title>Node1&#45;&gt;Node8</title>
<path fill="none" stroke="midnightblue" d="M22.65,-130.44C28.84,-112.05 45.35,-70.15 73.67,-47.5 77.77,-44.22 82.44,-41.51 87.33,-39.26"/>
<polygon fill="midnightblue" stroke="midnightblue" points="88.87,-42.41 96.89,-35.48 86.3,-35.9 88.87,-42.41"/>
</g>
<!-- Node9 -->
<g id="node9" class="node">
<title>Node9</title>
<g id="a_node9"><a xlink:href="append_8c.html#acaec22fd2994956cbc5b906c5a4cd119" target="_top" xlink:title=" ">
<polygon fill="white" stroke="black" points="231.29,-38.5 231.29,-56.5 331.22,-56.5 331.22,-38.5 231.29,-38.5"/>
<text text-anchor="middle" x="281.25" y="-44.5" font-family="Helvetica,sans-Serif" font-size="10.00">write_archive_data</text>
</a>
</g>
</g>
<!-- Node8&#45;&gt;Node9 -->
<g id="edge8" class="edge">
<title>Node8&#45;&gt;Node9</title>
<path fill="none" stroke="midnightblue" d="M172.01,-33.29C186.86,-35.24 204.39,-37.54 220.98,-39.72"/>
<polygon fill="midnightblue" stroke="midnightblue" points="220.78,-43.22 231.15,-41.06 221.69,-36.28 220.78,-43.22"/>
</g>
<!-- Node12 -->
<g id="node12" class="node">
<title>Node12</title>
<g id="a_node12"><a xlink:href="archiver_8h.html#a243891ab947a0803bf1c36b5fbe92f26" target="_top" xlink:title=" ">
<polygon fill="white" stroke="black" points="367.22,-0.5 367.22,-18.5 478.83,-18.5 478.83,-0.5 367.22,-0.5"/>
<text text-anchor="middle" x="423.03" y="-6.5" font-family="Helvetica,sans-Serif" font-size="10.00">write_archive_header</text>
</a>
</g>
</g>
<!-- Node8&#45;&gt;Node12 -->
<g id="edge11" class="edge">
<title>Node8&#45;&gt;Node12</title>
<path fill="none" stroke="midnightblue" d="M172.06,-26.07C218.6,-22.99 299.8,-17.6 357,-13.81"/>
<polygon fill="midnightblue" stroke="midnightblue" points="357.28,-17.3 367.03,-13.15 356.82,-10.32 357.28,-17.3"/>
</g>
<!-- Node10 -->
<g id="node10" class="node">
<title>Node10</title>
<g id="a_node10"><a xlink:href="append_8c.html#a0b27d89890937fcd6ba642c928894f58" target="_top" xlink:title=" ">
<polygon fill="white" stroke="black" points="389.17,-37.5 389.17,-55.5 456.88,-55.5 456.88,-37.5 389.17,-37.5"/>
<text text-anchor="middle" x="423.03" y="-43.5" font-family="Helvetica,sans-Serif" font-size="10.00">append_file</text>
</a>
</g>
</g>
<!-- Node9&#45;&gt;Node10 -->
<g id="edge9" class="edge">
<title>Node9&#45;&gt;Node10</title>
<path fill="none" stroke="midnightblue" d="M331.53,-47.15C346.99,-47.04 363.92,-46.92 378.91,-46.81"/>
<polygon fill="midnightblue" stroke="midnightblue" points="378.96,-50.31 388.94,-46.74 378.91,-43.31 378.96,-50.31"/>
</g>
<!-- Node11 -->
<g id="node11" class="node">
<title>Node11</title>
<g id="a_node11"><a xlink:href="archiver_8h.html#affdb16ec81266263c93640032649b9b4" target="_top" xlink:title=" ">
<polygon fill="white" stroke="black" points="514.83,-18.5 514.83,-36.5 601.97,-36.5 601.97,-18.5 514.83,-18.5"/>
<text text-anchor="middle" x="558.4" y="-24.5" font-family="Helvetica,sans-Serif" font-size="10.00">check_io_errors</text>
</a>
</g>
</g>
<!-- Node10&#45;&gt;Node11 -->
<g id="edge10" class="edge">
<title>Node10&#45;&gt;Node11</title>
<path fill="none" stroke="midnightblue" d="M457,-41.8C471.3,-39.77 488.41,-37.33 504.41,-35.05"/>
<polygon fill="midnightblue" stroke="midnightblue" points="505.33,-38.45 514.73,-33.58 504.34,-31.52 505.33,-38.45"/>
</g>
<!-- Node12&#45;&gt;Node11 -->
<g id="edge12" class="edge">
<title>Node12&#45;&gt;Node11</title>
<path fill="none" stroke="midnightblue" d="M479.05,-16.93C487.51,-18.07 496.24,-19.25 504.66,-20.38"/>
<polygon fill="midnightblue" stroke="midnightblue" points="504.36,-23.87 514.73,-21.74 505.29,-16.94 504.36,-23.87"/>
</g>
</g>
</svg>
