<?xml version="1.0" encoding="UTF-8" standalone="no"?>
<!DOCTYPE svg PUBLIC "-//W3C//DTD SVG 1.1//EN"
 "http://www.w3.org/Graphics/SVG/1.1/DTD/svg11.dtd">
<!-- Generated by graphviz version 2.43.0 (0)
 -->
<!-- Title: archive Pages: 1 -->
<svg width="140pt" height="244pt"
 viewBox="0.00 0.00 139.55 244.00" xmlns="http://www.w3.org/2000/svg" xmlns:xlink="http://www.w3.org/1999/xlink">
<g id="graph0" class="graph" transform="scale(1 1) rotate(0) translate(4 240)">
<title>archive</title>
<polygon fill="white" stroke="transparent" points="-4,4 -4,-240 135.55,-240 135.55,4 -4,4"/>
<!-- Node1 -->
<g id="node1" class="node">
<title>Node1</title>
<g id="a_node1"><a xlink:title=" ">
<polygon fill="#bfbfbf" stroke="black" points="0,-0.5 0,-114.5 111.36,-114.5 111.36,-0.5 0,-0.5"/>
<text text-anchor="middle" x="55.68" y="-102.5" font-family="Helvetica,sans-Serif" font-size="10.00">archive</text>
<polyline fill="none" stroke="black" points="0,-96.5 111.36,-96.5 "/>
<text text-anchor="start" x="8" y="-84.5" font-family="Helvetica,sans-Serif" font-size="10.00">+ command</text>
<text text-anchor="start" x="8" y="-74.5" font-family="Helvetica,sans-Serif" font-size="10.00">+ file_name</text>
<text text-anchor="start" x="8" y="-64.5" font-family="Helvetica,sans-Serif" font-size="10.00">+ fmode</text>
<text text-anchor="start" x="8" y="-54.5" font-family="Helvetica,sans-Serif" font-size="10.00">+ fd</text>
<text text-anchor="start" x="8" y="-44.5" font-family="Helvetica,sans-Serif" font-size="10.00">+ files_count</text>
<text text-anchor="start" x="8" y="-34.5" font-family="Helvetica,sans-Serif" font-size="10.00">+ append_files_count</text>
<text text-anchor="start" x="8" y="-24.5" font-family="Helvetica,sans-Serif" font-size="10.00">+ headers_offset</text>
<polyline fill="none" stroke="black" points="0,-18.5 111.36,-18.5 "/>
<text text-anchor="middle" x="55.68" y="-6.5" font-family="Helvetica,sans-Serif" font-size="10.00"> </text>
</a>
</g>
</g>
<!-- Node2 -->
<g id="node2" class="node">
<title>Node2</title>
<g id="a_node2"><a xlink:href="structdescr.html" target="_top" xlink:title=" ">
<polygon fill="white" stroke="black" points="17.23,-161.5 17.23,-235.5 94.12,-235.5 94.12,-161.5 17.23,-161.5"/>
<text text-anchor="middle" x="55.68" y="-223.5" font-family="Helvetica,sans-Serif" font-size="10.00">descr</text>
<polyline fill="none" stroke="black" points="17.23,-217.5 94.12,-217.5 "/>
<text text-anchor="start" x="25.23" y="-205.5" font-family="Helvetica,sans-Serif" font-size="10.00">+ file_name</text>
<text text-anchor="start" x="25.23" y="-195.5" font-family="Helvetica,sans-Serif" font-size="10.00">+ data_length</text>
<text text-anchor="start" x="25.23" y="-185.5" font-family="Helvetica,sans-Serif" font-size="10.00">+ data_start</text>
<polyline fill="none" stroke="black" points="17.23,-179.5 94.12,-179.5 "/>
<text text-anchor="middle" x="55.68" y="-167.5" font-family="Helvetica,sans-Serif" font-size="10.00"> </text>
</a>
</g>
</g>
<!-- Node2&#45;&gt;Node1 -->
<g id="edge1" class="edge">
<title>Node2&#45;&gt;Node1</title>
<path fill="none" stroke="#404040" d="M55.68,-161.34C55.68,-150.78 55.68,-138.86 55.68,-126.98"/>
<polygon fill="none" stroke="#404040" points="55.68,-126.68 51.68,-120.68 55.68,-114.68 59.68,-120.68 55.68,-126.68"/>
<text text-anchor="middle" x="93.61" y="-135" font-family="Helvetica,sans-Serif" font-size="10.00"> +file_descriptors</text>
</g>
</g>
</svg>
